<svg width="120" height="221" viewBox="0 0 120 221" fill="none" xmlns="http://www.w3.org/2000/svg">
<path d="M84.373 208.327C39.6114 200.088 5.18486 162.339 2.0127 116H0C3.18436 163.448 38.4991 202.094 84.373 210.362V208.327Z" fill="#F8FF96"/>
<path d="M94.0995 216V204.8H99.1875C100.403 204.8 101.475 205.035 102.403 205.504C103.331 205.963 104.057 206.608 104.579 207.44C105.102 208.272 105.363 209.259 105.363 210.4C105.363 211.531 105.102 212.517 104.579 213.36C104.057 214.192 103.331 214.843 102.403 215.312C101.475 215.771 100.403 216 99.1875 216H94.0995ZM96.6915 213.872H99.0595C99.8062 213.872 100.451 213.733 100.995 213.456C101.55 213.168 101.977 212.763 102.275 212.24C102.585 211.717 102.739 211.104 102.739 210.4C102.739 209.685 102.585 209.072 102.275 208.56C101.977 208.037 101.55 207.637 100.995 207.36C100.451 207.072 99.8062 206.928 99.0595 206.928H96.6915V213.872ZM107.318 216V204.8H109.462L116.07 212.864H115.03V204.8H117.59V216H115.462L108.838 207.936H109.878V216H107.318Z" fill="#F8FF96"/>
<path d="M88.4681 210.34L82.6294 211.882L83.6192 206.74L88.4681 210.34Z" fill="#F8FF96"/>
<path d="M110.784 214C108.138 214.204 105.463 214.309 102.765 214.309C100.066 214.309 97.3916 214.204 94.7451 214H110.784ZM84.374 11.9819C39.7118 20.2021 5.33869 57.8024 2.03516 104H0.0224609C3.33891 56.6931 38.5996 18.1973 84.374 9.94678V11.9819Z" fill="#F8FF96"/>
<path d="M88.4691 9.96875L82.6304 8.42638L83.6202 13.5684L88.4691 9.96875Z" fill="#F8FF96"/>
<path d="M100.075 16.192C98.4862 16.192 97.2435 15.7493 96.3475 14.864C95.4515 13.9787 95.0035 12.7147 95.0035 11.072V4.8H97.5955V10.976C97.5955 12.0427 97.8142 12.8107 98.2515 13.28C98.6888 13.7493 99.3022 13.984 100.091 13.984C100.881 13.984 101.494 13.7493 101.931 13.28C102.369 12.8107 102.587 12.0427 102.587 10.976V4.8H105.147V11.072C105.147 12.7147 104.699 13.9787 103.803 14.864C102.907 15.7493 101.665 16.192 100.075 16.192ZM107.709 16V4.8H112.557C113.56 4.8 114.424 4.96533 115.149 5.296C115.874 5.616 116.434 6.08 116.829 6.688C117.224 7.296 117.421 8.02133 117.421 8.864C117.421 9.696 117.224 10.416 116.829 11.024C116.434 11.632 115.874 12.1013 115.149 12.432C114.424 12.752 113.56 12.912 112.557 12.912H109.149L110.301 11.744V16H107.709ZM110.301 12.032L109.149 10.8H112.413C113.213 10.8 113.81 10.6293 114.205 10.288C114.6 9.94667 114.797 9.472 114.797 8.864C114.797 8.24533 114.6 7.76533 114.205 7.424C113.81 7.08267 113.213 6.912 112.413 6.912H109.149L110.301 5.68V12.032Z" fill="#F8FF96"/>
</svg>
