<svg width="112" height="109" viewBox="0 0 112 109" fill="none" xmlns="http://www.w3.org/2000/svg">
<g filter="url(#filter0_i_83_515)">
<rect width="112" height="109" rx="6" fill="url(#paint0_linear_83_515)"/>
<g clip-path="url(#clip0_83_515)">
<g filter="url(#filter1_d_83_515)">
<rect x="16" y="20" width="80" height="6" rx="2" fill="#595959"/>
</g>
<g filter="url(#filter2_d_83_515)">
<rect x="16" y="30" width="80" height="6" rx="2" fill="#595959"/>
</g>
<g filter="url(#filter3_d_83_515)">
<rect x="16" y="40" width="80" height="6" rx="2" fill="#595959"/>
</g>
</g>
<path d="M34.82 85L41.06 71H44.26L50.52 85H47.12L42 72.64H43.28L38.14 85H34.82ZM37.94 82L38.8 79.54H46L46.88 82H37.94ZM51.9725 85V71H58.0325C59.2858 71 60.3658 71.2067 61.2725 71.62C62.1792 72.02 62.8792 72.6 63.3725 73.36C63.8658 74.12 64.1125 75.0267 64.1125 76.08C64.1125 77.12 63.8658 78.02 63.3725 78.78C62.8792 79.54 62.1792 80.1267 61.2725 80.54C60.3658 80.94 59.2858 81.14 58.0325 81.14H53.7725L55.2125 79.68V85H51.9725ZM55.2125 80.04L53.7725 78.5H57.8525C58.8525 78.5 59.5992 78.2867 60.0925 77.86C60.5858 77.4333 60.8325 76.84 60.8325 76.08C60.8325 75.3067 60.5858 74.7067 60.0925 74.28C59.5992 73.8533 58.8525 73.64 57.8525 73.64H53.7725L55.2125 72.1V80.04ZM65.5233 85V82.9L70.9233 77.8C71.3499 77.4133 71.6633 77.0667 71.8633 76.76C72.0633 76.4533 72.1966 76.1733 72.2633 75.92C72.3433 75.6667 72.3833 75.4333 72.3833 75.22C72.3833 74.66 72.1899 74.2333 71.8033 73.94C71.4299 73.6333 70.8766 73.48 70.1433 73.48C69.5566 73.48 69.0099 73.5933 68.5033 73.82C68.0099 74.0467 67.5899 74.4 67.2433 74.88L64.8833 73.36C65.4166 72.56 66.1633 71.9267 67.1233 71.46C68.0833 70.9933 69.1899 70.76 70.4433 70.76C71.4833 70.76 72.3899 70.9333 73.1633 71.28C73.9499 71.6133 74.5566 72.0867 74.9833 72.7C75.4233 73.3133 75.6433 74.0467 75.6433 74.9C75.6433 75.3533 75.5833 75.8067 75.4633 76.26C75.3566 76.7 75.1299 77.1667 74.7833 77.66C74.4499 78.1533 73.9566 78.7067 73.3033 79.32L68.8233 83.54L68.2033 82.36H76.1033V85H65.5233Z" fill="#E6E6E6"/>
</g>
<defs>
<filter id="filter0_i_83_515" x="0" y="0" width="112" height="109" filterUnits="userSpaceOnUse" color-interpolation-filters="sRGB">
<feFlood flood-opacity="0" result="BackgroundImageFix"/>
<feBlend mode="normal" in="SourceGraphic" in2="BackgroundImageFix" result="shape"/>
<feColorMatrix in="SourceAlpha" type="matrix" values="0 0 0 0 0 0 0 0 0 0 0 0 0 0 0 0 0 0 127 0" result="hardAlpha"/>
<feMorphology radius="2" operator="erode" in="SourceAlpha" result="effect1_innerShadow_83_515"/>
<feOffset/>
<feGaussianBlur stdDeviation="2.5"/>
<feComposite in2="hardAlpha" operator="arithmetic" k2="-1" k3="1"/>
<feColorMatrix type="matrix" values="0 0 0 0 0 0 0 0 0 0 0 0 0 0 0 0 0 0 0.25 0"/>
<feBlend mode="normal" in2="shape" result="effect1_innerShadow_83_515"/>
</filter>
<filter id="filter1_d_83_515" x="13" y="17" width="86" height="12" filterUnits="userSpaceOnUse" color-interpolation-filters="sRGB">
<feFlood flood-opacity="0" result="BackgroundImageFix"/>
<feColorMatrix in="SourceAlpha" type="matrix" values="0 0 0 0 0 0 0 0 0 0 0 0 0 0 0 0 0 0 127 0" result="hardAlpha"/>
<feMorphology radius="1" operator="dilate" in="SourceAlpha" result="effect1_dropShadow_83_515"/>
<feOffset/>
<feGaussianBlur stdDeviation="1"/>
<feComposite in2="hardAlpha" operator="out"/>
<feColorMatrix type="matrix" values="0 0 0 0 0.0701922 0 0 0 0 0.0701922 0 0 0 0 0.0701922 0 0 0 0.4 0"/>
<feBlend mode="normal" in2="BackgroundImageFix" result="effect1_dropShadow_83_515"/>
<feBlend mode="normal" in="SourceGraphic" in2="effect1_dropShadow_83_515" result="shape"/>
</filter>
<filter id="filter2_d_83_515" x="13" y="27" width="86" height="12" filterUnits="userSpaceOnUse" color-interpolation-filters="sRGB">
<feFlood flood-opacity="0" result="BackgroundImageFix"/>
<feColorMatrix in="SourceAlpha" type="matrix" values="0 0 0 0 0 0 0 0 0 0 0 0 0 0 0 0 0 0 127 0" result="hardAlpha"/>
<feMorphology radius="1" operator="dilate" in="SourceAlpha" result="effect1_dropShadow_83_515"/>
<feOffset/>
<feGaussianBlur stdDeviation="1"/>
<feComposite in2="hardAlpha" operator="out"/>
<feColorMatrix type="matrix" values="0 0 0 0 0.0701922 0 0 0 0 0.0701922 0 0 0 0 0.0701922 0 0 0 0.4 0"/>
<feBlend mode="normal" in2="BackgroundImageFix" result="effect1_dropShadow_83_515"/>
<feBlend mode="normal" in="SourceGraphic" in2="effect1_dropShadow_83_515" result="shape"/>
</filter>
<filter id="filter3_d_83_515" x="13" y="37" width="86" height="12" filterUnits="userSpaceOnUse" color-interpolation-filters="sRGB">
<feFlood flood-opacity="0" result="BackgroundImageFix"/>
<feColorMatrix in="SourceAlpha" type="matrix" values="0 0 0 0 0 0 0 0 0 0 0 0 0 0 0 0 0 0 127 0" result="hardAlpha"/>
<feMorphology radius="1" operator="dilate" in="SourceAlpha" result="effect1_dropShadow_83_515"/>
<feOffset/>
<feGaussianBlur stdDeviation="1"/>
<feComposite in2="hardAlpha" operator="out"/>
<feColorMatrix type="matrix" values="0 0 0 0 0.0701922 0 0 0 0 0.0701922 0 0 0 0 0.0701922 0 0 0 0.4 0"/>
<feBlend mode="normal" in2="BackgroundImageFix" result="effect1_dropShadow_83_515"/>
<feBlend mode="normal" in="SourceGraphic" in2="effect1_dropShadow_83_515" result="shape"/>
</filter>
<linearGradient id="paint0_linear_83_515" x1="56" y1="0" x2="56" y2="109" gradientUnits="userSpaceOnUse">
<stop stop-color="#121212"/>
<stop offset="1" stop-color="#1B1B1B"/>
</linearGradient>
<clipPath id="clip0_83_515">
<rect width="80" height="34" fill="white" transform="translate(16 16)"/>
</clipPath>
</defs>
</svg>
